<svg xmlns="http://www.w3.org/2000/svg" width="17.937" height="14" viewBox="0 0 17.937 14">
  <g id="メールのアイコンその9" transform="translate(0 -56.188)">
    <path id="パス_25" data-name="パス 25" d="M17.893,58.086a2.354,2.354,0,0,0-.488-1.032,1.986,1.986,0,0,0-.159-.175,2.363,2.363,0,0,0-1.665-.69H2.356a2.34,2.34,0,0,0-1.665.69,2.067,2.067,0,0,0-.16.178,2.326,2.326,0,0,0-.484,1.031A2.276,2.276,0,0,0,0,58.544v9.288A2.368,2.368,0,0,0,.69,69.5c.053.053.106.1.162.149a2.362,2.362,0,0,0,1.5.541H15.581a2.344,2.344,0,0,0,1.505-.545,2.04,2.04,0,0,0,.16-.145,2.343,2.343,0,0,0,.482-.7l.015-.037a2.323,2.323,0,0,0,.193-.933V58.544A2.414,2.414,0,0,0,17.893,58.086ZM1.22,57.691a1.108,1.108,0,0,1,.13-.154,1.414,1.414,0,0,1,1.006-.417H15.581a1.4,1.4,0,0,1,1.006.418,1.42,1.42,0,0,1,.128.15l.1.136L9.757,63.976a1.2,1.2,0,0,1-1.578,0L1.128,57.826ZM.937,67.914a.562.562,0,0,1,0-.082v-9.1l5.478,4.779L.988,68.243Zm15.349,1.154a1.414,1.414,0,0,1-.706.187H2.356a1.413,1.413,0,0,1-.706-.187l-.222-.129,5.6-4.883.614.534a2.015,2.015,0,0,0,2.648,0l.614-.534,5.6,4.883ZM17,67.832a.588.588,0,0,1,0,.081l-.049.332-5.425-4.727L17,58.738Z" transform="translate(0)" fill="#fff"/>
  </g>
</svg>
