<svg xmlns="http://www.w3.org/2000/svg" width="32.621" height="42.22" viewBox="0 0 32.621 42.22">
  <g id="アンケート用紙のアイコン素材" transform="translate(-58.203)">
    <path id="パス_1" data-name="パス 1" d="M90.5,7.253a4.084,4.084,0,0,0-3.764-2.494H83.221V4.151h-5.1a3.645,3.645,0,1,0-7.218,0h-5.1v.607H62.289A4.084,4.084,0,0,0,58.2,8.844V38.136a4.084,4.084,0,0,0,4.086,4.084h24.45a4.084,4.084,0,0,0,4.086-4.084V8.844A4.055,4.055,0,0,0,90.5,7.253ZM74.514,2.292a1.351,1.351,0,0,1,1.254,1.859H73.261a1.33,1.33,0,0,1-.1-.506A1.355,1.355,0,0,1,74.514,2.292ZM88.394,38.136a1.629,1.629,0,0,1-.13.643,1.669,1.669,0,0,1-.6.731,1.641,1.641,0,0,1-.925.281H62.289a1.655,1.655,0,0,1-1.656-1.654V8.844a1.635,1.635,0,0,1,.13-.644,1.655,1.655,0,0,1,1.526-1.011h3.517v.506a1.721,1.721,0,0,0,1.723,1.721H81.5a1.721,1.721,0,0,0,1.721-1.721V7.188h3.517a1.635,1.635,0,0,1,.644.13,1.659,1.659,0,0,1,.729.6,1.632,1.632,0,0,1,.282.925Z" fill="#00506c"/>
    <rect id="長方形_9" data-name="長方形 9" width="2.608" height="2.608" transform="translate(66.279 14.074)" fill="#00506c"/>
    <rect id="長方形_10" data-name="長方形 10" width="10.75" height="2.608" transform="translate(72 14.074)" fill="#00506c"/>
    <rect id="長方形_11" data-name="長方形 11" width="2.608" height="2.608" transform="translate(66.279 21.78)" fill="#00506c"/>
    <rect id="長方形_12" data-name="長方形 12" width="10.75" height="2.608" transform="translate(72 21.78)" fill="#00506c"/>
    <rect id="長方形_13" data-name="長方形 13" width="2.608" height="2.608" transform="translate(66.279 29.488)" fill="#00506c"/>
    <rect id="長方形_14" data-name="長方形 14" width="10.75" height="2.608" transform="translate(72 29.488)" fill="#00506c"/>
  </g>
</svg>
