<svg xmlns="http://www.w3.org/2000/svg" width="47.485" height="51.099" viewBox="0 0 47.485 51.099">
  <g id="聴診器のアイコン素材_1_" data-name="聴診器のアイコン素材 (1)" transform="matrix(0.985, 0.174, -0.174, 0.985, -22.528, -6.595)">
    <path id="パス_33" data-name="パス 33" d="M112.89,6.721a1.236,1.236,0,0,0,.529-1.016V1.237A1.239,1.239,0,0,0,111.753.073l-2.706.992v4.81l2.706.992A1.238,1.238,0,0,0,112.89,6.721Z" transform="translate(-71.049 0)" fill="#00506c"/>
    <path id="パス_34" data-name="パス 34" d="M271.154,6.722a1.243,1.243,0,0,0,1.137.149L275,5.878V1.066L272.291.074a1.239,1.239,0,0,0-1.666,1.164V5.705A1.238,1.238,0,0,0,271.154,6.722Z" transform="translate(-218.112 0)" fill="#00506c"/>
    <path id="パス_35" data-name="パス 35" d="M69.525,41.849a6.447,6.447,0,0,0-9.118,9.118c.029.028.062.053.091.083l-3.863,6.993a6.124,6.124,0,0,1-2.059,2.178,4.24,4.24,0,0,1-2.2.661,3.164,3.164,0,0,1-1.206-.23,2.821,2.821,0,0,1-1.355-1.164,4.691,4.691,0,0,1-.609-2.5V47.02a7.336,7.336,0,0,0,2-.818,7.187,7.187,0,0,0,1.319-1.011,6.03,6.03,0,0,0,.932-1.148c.007-.013.058-.09.128-.191.135-.192.35-.487.615-.851.938-1.275,2.534-3.393,4.127-5.6.8-1.1,1.6-2.229,2.319-3.293s1.366-2.059,1.865-2.927a9.625,9.625,0,0,0,1.37-4.74,6.592,6.592,0,0,0-.437-2.409,5.667,5.667,0,0,0-.963-1.616,6.042,6.042,0,0,0-2.419-1.694,8.089,8.089,0,0,0-1.882-.466v3.591a4.093,4.093,0,0,1,.42.117,2.952,2.952,0,0,1,.82.415,2.09,2.09,0,0,1,.675.834,2.934,2.934,0,0,1,.24,1.228,6.134,6.134,0,0,1-.9,2.973c-.519.9-1.307,2.1-2.192,3.384-1.331,1.924-2.889,4.041-4.176,5.775-.643.867-1.218,1.639-1.668,2.25-.226.306-.42.57-.577.79-.08.111-.15.211-.212.3s-.118.173-.173.264a2.573,2.573,0,0,1-.387.467,3.681,3.681,0,0,1-1.081.724,3.846,3.846,0,0,1-3.487-.215,3.646,3.646,0,0,1-.665-.51,2.5,2.5,0,0,1-.386-.467c-.074-.119-.147-.226-.239-.358-.168-.241-.393-.549-.668-.922-.959-1.3-2.538-3.4-4.108-5.574-.785-1.086-1.565-2.187-2.259-3.209s-1.3-1.962-1.725-2.7a6.134,6.134,0,0,1-.9-2.974,3.064,3.064,0,0,1,.192-1.114,2.159,2.159,0,0,1,.362-.611,2.482,2.482,0,0,1,1.015-.691,3.912,3.912,0,0,1,.608-.182V20.252a8.216,8.216,0,0,0-1.578.355,6.473,6.473,0,0,0-1.8.928,5.651,5.651,0,0,0-1.79,2.214,6.485,6.485,0,0,0-.557,2.694,9.628,9.628,0,0,0,1.371,4.742c.608,1.057,1.432,2.308,2.35,3.634,1.373,1.986,2.951,4.127,4.245,5.87.646.872,1.221,1.644,1.66,2.24.22.3.406.552.546.75.07.1.129.181.173.246s.074.111.079.118a6.048,6.048,0,0,0,.932,1.15,7.12,7.12,0,0,0,3.317,1.825V56.99a8.892,8.892,0,0,0,.511,3.064,6.637,6.637,0,0,0,2.491,3.255,6.566,6.566,0,0,0,3.713,1.119,7.8,7.8,0,0,0,4.058-1.183,9.68,9.68,0,0,0,3.276-3.431l.01-.015,3.913-7.084a6.559,6.559,0,0,0,1.336.14,6.447,6.447,0,0,0,4.559-11.006ZM68.158,49.6a4.514,4.514,0,1,1,1.321-3.191A4.5,4.5,0,0,1,68.158,49.6Z" transform="translate(0 -18.435)" fill="#00506c"/>
    <path id="パス_36" data-name="パス 36" d="M387.276,284.417a2.44,2.44,0,0,0-3.182,1.338l.9.365a1.474,1.474,0,0,1,2.838.557,1.454,1.454,0,0,1-.109.557l.9.365a2.4,2.4,0,0,0,.181-.922A2.439,2.439,0,0,0,387.276,284.417Z" transform="translate(-321.388 -258.704)" fill="#00506c"/>
  </g>
</svg>
