<svg xmlns="http://www.w3.org/2000/svg" width="40.594" height="55.364" viewBox="0 0 40.594 55.364">
  <g id="ナースのアイコン素材" transform="translate(-68.297)">
    <path id="パス_30" data-name="パス 30" d="M254.313,426.509a.57.57,0,1,0,.569-.571A.569.569,0,0,0,254.313,426.509Z" transform="translate(-165.902 -379.88)" fill="#00506c"/>
    <path id="パス_31" data-name="パス 31" d="M108.534,47.041a8.107,8.107,0,0,0-3.19-4.6A13.336,13.336,0,0,0,103.2,41.2c-.752-.351-1.514-.645-2.252-.919a7.279,7.279,0,0,1-1.94-4.977c.022-1.718.157-1.571.183-6.545a5.361,5.361,0,0,0,1.127-1.287,8.214,8.214,0,0,0,1.026-2.605,3.85,3.85,0,0,0,.1-.87,3.988,3.988,0,0,0-.378-1.684,4.577,4.577,0,0,0-.62-.973c.125-.463.277-1.081.411-1.808a10.08,10.08,0,0,0,.341-2.561,12.847,12.847,0,0,0-.232-2.511,9.149,9.149,0,0,0-.568-1.848A7.269,7.269,0,0,0,99.66,11.3L102.5,7.015a1.607,1.607,0,0,0,.267-.885,1.6,1.6,0,0,0-.505-1.171,5.249,5.249,0,0,0-.7-.754,13.4,13.4,0,0,0-2.713-1.833A19.265,19.265,0,0,0,94.559.723a24.9,24.9,0,0,0-12.312.1,18.986,18.986,0,0,0-4.415,1.832A12.8,12.8,0,0,0,75.5,4.315a4.778,4.778,0,0,0-.59.649A1.6,1.6,0,0,0,74.42,6.12a1.6,1.6,0,0,0,.269.885l3.19,4.817a11.1,11.1,0,0,0-1.032,2.435,11.818,11.818,0,0,0-.448,3.264,5.418,5.418,0,0,0,.2,1.416c0,.057,0,.111.005.166.007.1.017.21.029.321.017.164.037.333.051.473.008.071.015.135.019.186,0,.024,0,.044,0,.057l0,.02v0h0v.095l.2.892a4.675,4.675,0,0,0-.733,1.058A3.99,3.99,0,0,0,75.746,24a3.774,3.774,0,0,0,.1.87l0,0a9.142,9.142,0,0,0,.62,1.859,5.855,5.855,0,0,0,1.38,1.906c.049.042.1.084.149.125.025,4.977.162,4.829.183,6.549a7.268,7.268,0,0,1-1.941,4.977c-.329.125-.664.25-1,.385a18.132,18.132,0,0,0-2.492,1.189,10.256,10.256,0,0,0-1.723,1.26A7.889,7.889,0,0,0,69.042,45.9a10.321,10.321,0,0,0-.745,4.065,1.719,1.719,0,0,0,.123.634,2.24,2.24,0,0,0,.289.515,3.95,3.95,0,0,0,.853.828,10.443,10.443,0,0,0,2.479,1.271,30.758,30.758,0,0,0,6.425,1.517,72.577,72.577,0,0,0,10.127.632,76.2,76.2,0,0,0,9-.483,41.91,41.91,0,0,0,4.881-.855,22.672,22.672,0,0,0,2.693-.821,13.03,13.03,0,0,0,1.517-.676,7.961,7.961,0,0,0,.877-.541,4.019,4.019,0,0,0,.929-.892,2.322,2.322,0,0,0,.286-.524,1.732,1.732,0,0,0,.113-.6A11.35,11.35,0,0,0,108.534,47.041ZM76.255,6.153l.012-.008.074-.13a3.272,3.272,0,0,1,.507-.524,11.707,11.707,0,0,1,1.874-1.3,17.111,17.111,0,0,1,4-1.657,21.8,21.8,0,0,1,5.875-.76,22.051,22.051,0,0,1,5.52.666,17.6,17.6,0,0,1,3.9,1.5,11.611,11.611,0,0,1,2.352,1.58,4.128,4.128,0,0,1,.405.416c.035.042.056.073.066.086l0,0,.079.135.012.007-3.984,6.015h-16.7Zm4.6,34.015a7.264,7.264,0,0,0,.884-.6,5.283,5.283,0,0,0,.813-.8l5.5,2.555-2.588,4.744Zm8.174,10.448L86.26,47.08l2.614-4.8,2.605,4.778Zm3.207-4.646-2.551-4.678,4.913-2.583a4.642,4.642,0,0,0,.348.4,6.434,6.434,0,0,0,1.321,1.021Zm5.984-18.6a3.463,3.463,0,0,1-1.108.659l-.373.135-.133.375a20.539,20.539,0,0,1-1.2,2.8,8.105,8.105,0,0,1-1.2,1.725l-.162.171-.051.23a8.022,8.022,0,0,0-.367,2.288,3.939,3.939,0,0,0,.056.649,4.715,4.715,0,0,0,.3,1.23c.007.017.015.034.022.051l-5.141,2.7-5.694-2.643a4.551,4.551,0,0,0,.343-1.341,3.959,3.959,0,0,0,.057-.647,8.024,8.024,0,0,0-.368-2.291l-.051-.23-.16-.171a7.875,7.875,0,0,1-1.2-1.727,20.308,20.308,0,0,1-1.2-2.8l-.133-.375-.373-.135a3.467,3.467,0,0,1-.752-.382A3.535,3.535,0,0,1,78.3,26.567a6.506,6.506,0,0,1-.806-2.071,2.241,2.241,0,0,1-.056-.5,2.29,2.29,0,0,1,.252-1.034,2.969,2.969,0,0,1,.558-.765,12.883,12.883,0,0,0,.826,1.171c.38.38.434-.517.253-1.524-.333-1.852.566-.084,2.85-4.525,3.675.818,9.56-2.168,11.719-3.366h.884a8.562,8.562,0,0,0,1.565,3.771,18.082,18.082,0,0,1,2.267,5.515s.2-.372.49-.872a2.924,2.924,0,0,1,.427.656A2.294,2.294,0,0,1,99.75,24a2.26,2.26,0,0,1-.057.5,7.417,7.417,0,0,1-.5,1.514A4.137,4.137,0,0,1,98.217,27.368Z" fill="#00506c"/>
    <path id="パス_32" data-name="パス 32" d="M227.446,40.809h1.98V38.457h2.35V36.479h-2.35V34.125h-1.98v2.354h-2.352v1.979h2.352Z" transform="translate(-139.842 -30.435)" fill="#00506c"/>
  </g>
</svg>
