<svg xmlns="http://www.w3.org/2000/svg" width="177.07" height="114.639" viewBox="0 0 177.07 114.639">
  <g id="グループ_144" data-name="グループ 144" transform="translate(-1208 -3694.68)">
    <g id="シンプルな書類ファイル" transform="translate(1205.475 3776.68)">
      <rect id="長方形_68" data-name="長方形 68" width="14.558" height="1.391" transform="translate(59.428 25.128)" fill="#4b4b4b"/>
      <rect id="長方形_69" data-name="長方形 69" width="14.558" height="1.391" transform="translate(59.428 19.487)" fill="#4b4b4b"/>
      <rect id="長方形_70" data-name="長方形 70" width="14.558" height="1.391" transform="translate(59.428 13.846)" fill="#4b4b4b"/>
      <rect id="長方形_71" data-name="長方形 71" width="6.862" height="1.391" transform="translate(67.124 8.206)" fill="#4b4b4b"/>
      <path id="パス_55" data-name="パス 55" d="M76.628,0H64.588a3.261,3.261,0,0,0-2.3.954l-7.51,7.511a3.259,3.259,0,0,0-.955,2.3v18.9a2.972,2.972,0,0,0,2.968,2.968H76.628A2.971,2.971,0,0,0,79.6,29.671V2.967A2.971,2.971,0,0,0,76.628,0ZM63.535,2.062V8.734c0,.721-.281,1-1,1H55.862ZM77.927,29.671a1.3,1.3,0,0,1-1.3,1.3H56.786a1.3,1.3,0,0,1-1.3-1.3V11.22h7.94a1.594,1.594,0,0,0,1.592-1.593V1.669H76.628a1.3,1.3,0,0,1,1.3,1.3Z" fill="#4b4b4b"/>
    </g>
    <g id="シンプルな書類ファイル-2" data-name="シンプルな書類ファイル" transform="translate(1305.475 3776.68)">
      <rect id="長方形_68-2" data-name="長方形 68" width="14.558" height="1.391" transform="translate(59.428 25.128)" fill="#4b4b4b"/>
      <rect id="長方形_69-2" data-name="長方形 69" width="14.558" height="1.391" transform="translate(59.428 19.487)" fill="#4b4b4b"/>
      <rect id="長方形_70-2" data-name="長方形 70" width="14.558" height="1.391" transform="translate(59.428 13.846)" fill="#4b4b4b"/>
      <rect id="長方形_71-2" data-name="長方形 71" width="6.862" height="1.391" transform="translate(67.124 8.206)" fill="#4b4b4b"/>
      <path id="パス_55-2" data-name="パス 55" d="M76.628,0H64.588a3.261,3.261,0,0,0-2.3.954l-7.51,7.511a3.259,3.259,0,0,0-.955,2.3v18.9a2.972,2.972,0,0,0,2.968,2.968H76.628A2.971,2.971,0,0,0,79.6,29.671V2.967A2.971,2.971,0,0,0,76.628,0ZM63.535,2.062V8.734c0,.721-.281,1-1,1H55.862ZM77.927,29.671a1.3,1.3,0,0,1-1.3,1.3H56.786a1.3,1.3,0,0,1-1.3-1.3V11.22h7.94a1.594,1.594,0,0,0,1.592-1.593V1.669H76.628a1.3,1.3,0,0,1,1.3,1.3Z" fill="#4b4b4b"/>
    </g>
    <g id="シンプルな書類ファイル-3" data-name="シンプルな書類ファイル" transform="translate(1250.475 3694.68)">
      <rect id="長方形_68-3" data-name="長方形 68" width="14.558" height="1.391" transform="translate(59.428 25.128)" fill="#4b4b4b"/>
      <rect id="長方形_69-3" data-name="長方形 69" width="14.558" height="1.391" transform="translate(59.428 19.487)" fill="#4b4b4b"/>
      <rect id="長方形_70-3" data-name="長方形 70" width="14.558" height="1.391" transform="translate(59.428 13.846)" fill="#4b4b4b"/>
      <rect id="長方形_71-3" data-name="長方形 71" width="6.862" height="1.391" transform="translate(67.124 8.206)" fill="#4b4b4b"/>
      <path id="パス_55-3" data-name="パス 55" d="M76.628,0H64.588a3.261,3.261,0,0,0-2.3.954l-7.51,7.511a3.259,3.259,0,0,0-.955,2.3v18.9a2.972,2.972,0,0,0,2.968,2.968H76.628A2.971,2.971,0,0,0,79.6,29.671V2.967A2.971,2.971,0,0,0,76.628,0ZM63.535,2.062V8.734c0,.721-.281,1-1,1H55.862ZM77.927,29.671a1.3,1.3,0,0,1-1.3,1.3H56.786a1.3,1.3,0,0,1-1.3-1.3V11.22h7.94a1.594,1.594,0,0,0,1.592-1.593V1.669H76.628a1.3,1.3,0,0,1,1.3,1.3Z" fill="#4b4b4b"/>
    </g>
    <g id="女性の人物フリーアイコン素材" transform="translate(1308.223 3739)">
      <path id="パス_56" data-name="パス 56" d="M89.742,39.739a13.251,13.251,0,0,1-.021-2.314,7.62,7.62,0,0,0,4.834,1.032,13.26,13.26,0,0,1-.954-6.215,29.362,29.362,0,0,0,1.615-3.871,6.827,6.827,0,0,0,2.722-4.515,3.8,3.8,0,0,0-.364-2.638C102.177,6.278,92.543,0,86.735,0a19.679,19.679,0,0,0-3.381.3A19.7,19.7,0,0,0,79.972,0C74.163,0,64.529,6.278,69.135,21.22a3.8,3.8,0,0,0-.364,2.638c.681,3.018,2.106,4.342,3.552,4.955a13.324,13.324,0,0,1-.171,9.645,7.62,7.62,0,0,0,4.834-1.032,13.256,13.256,0,0,1-.021,2.314c-.778,7.49-17.4,6.837-17.4,16.7,0,2.028,6.8,5.565,23.787,5.565s23.786-3.537,23.786-5.565C107.14,46.576,90.519,47.229,89.742,39.739Z" transform="translate(-59.567)" fill="#4b4b4b"/>
    </g>
    <g id="女性の人物フリーアイコン素材-2" data-name="女性の人物フリーアイコン素材" transform="translate(1208 3739)">
      <path id="パス_56-2" data-name="パス 56" d="M89.742,39.739a13.251,13.251,0,0,1-.021-2.314,7.62,7.62,0,0,0,4.834,1.032,13.26,13.26,0,0,1-.954-6.215,29.362,29.362,0,0,0,1.615-3.871,6.827,6.827,0,0,0,2.722-4.515,3.8,3.8,0,0,0-.364-2.638C102.177,6.278,92.543,0,86.735,0a19.679,19.679,0,0,0-3.381.3A19.7,19.7,0,0,0,79.972,0C74.163,0,64.529,6.278,69.135,21.22a3.8,3.8,0,0,0-.364,2.638c.681,3.018,2.106,4.342,3.552,4.955a13.324,13.324,0,0,1-.171,9.645,7.62,7.62,0,0,0,4.834-1.032,13.256,13.256,0,0,1-.021,2.314c-.778,7.49-17.4,6.837-17.4,16.7,0,2.028,6.8,5.565,23.787,5.565s23.786-3.537,23.786-5.565C107.14,46.576,90.519,47.229,89.742,39.739Z" transform="translate(-59.567)" fill="#4b4b4b"/>
    </g>
    <g id="男性の人物アイコン素材_その2" data-name="男性の人物アイコン素材 その2" transform="translate(1259.07 3708)">
      <path id="パス_57" data-name="パス 57" d="M100.046,38.886a5.983,5.983,0,0,1-.659-3.539,16.323,16.323,0,0,0,4.422-7.039,5.491,5.491,0,0,0,2.819-4.907,5.757,5.757,0,0,0-1.155-3.5l.066-.588c.656-2.485,2.462-11.179-3.091-15.251C99.55.446,95.64-.133,91.295.3c-2.161.216-4.239.86-5.9.619a18.343,18.343,0,0,1-3.95-.908c-.267-.134-1.03.928-1.839,2.7A27.6,27.6,0,0,0,78.053,17.73L78.3,19.9a5.756,5.756,0,0,0-1.156,3.5,5.51,5.51,0,0,0,2.7,4.843,15.189,15.189,0,0,0,4.667,7.27,5.943,5.943,0,0,1-.678,3.372c-1.242,2.274-14.5,5.328-14.5,17.825,0,1.927,6.458,5.289,22.6,5.289s22.6-3.361,22.6-5.289C114.542,44.214,101.288,41.161,100.046,38.886Z" transform="translate(-69.334 0)" fill="#4b4b4b"/>
    </g>
  </g>
</svg>
