<svg xmlns="http://www.w3.org/2000/svg" width="43.99" height="43.991" viewBox="0 0 43.99 43.991">
  <g id="時計の無料アイコン" transform="translate(-0.005)">
    <path id="パス_37" data-name="パス 37" d="M177.026,164.7l5.57,4.3.078.044.035.019a1.276,1.276,0,0,0,1.544-.342l.037-.036,6.826-8.077a.926.926,0,1,0-1.371-1.22l-6.381,6.817-4.926-3.431a1.206,1.206,0,0,0-1.412,1.927Z" transform="translate(-161.457 -145.339)" fill="#00506c"/>
    <path id="パス_38" data-name="パス 38" d="M63.359,246.635a8.228,8.228,0,0,1,.038-.879H59.9c-.021.289-.027.584-.027.879s.006.591.027.881h3.5A8.247,8.247,0,0,1,63.359,246.635Z" transform="translate(-54.724 -224.641)" fill="#00506c"/>
    <path id="パス_39" data-name="パス 39" d="M152.511,85.729c.331-.209.668-.406,1.011-.582l.133-.065-1.742-3.026a13.491,13.491,0,0,0-1.273.731l1.743,3.027Z" transform="translate(-137.693 -75.007)" fill="#00506c"/>
    <path id="パス_40" data-name="パス 40" d="M82.071,151.907l3.027,1.742.733-1.271L82.8,150.635A13.521,13.521,0,0,0,82.071,151.907Z" transform="translate(-75.015 -137.692)" fill="#00506c"/>
    <path id="パス_41" data-name="パス 41" d="M386.8,326.342c-.182.344-.373.68-.588,1.005l-.087.128,3.028,1.743c.268-.412.512-.83.737-1.266l-3.02-1.749Z" transform="translate(-352.946 -298.177)" fill="#00506c"/>
    <path id="パス_42" data-name="パス 42" d="M85.162,326.338l-.07-.133-3.021,1.742a12.542,12.542,0,0,0,.731,1.272l3.028-1.743-.088-.128A10.981,10.981,0,0,1,85.162,326.338Z" transform="translate(-75.015 -298.178)" fill="#00506c"/>
    <path id="パス_43" data-name="パス 43" d="M152.511,386.2l-.128-.087-1.743,3.028a13.76,13.76,0,0,0,1.273.738l1.742-3.027-.133-.065A11.109,11.109,0,0,1,152.511,386.2Z" transform="translate(-137.693 -352.937)" fill="#00506c"/>
    <path id="パス_44" data-name="パス 44" d="M326.214,85.079l1.272.738,1.743-3.027a13.529,13.529,0,0,0-1.266-.731Z" transform="translate(-298.181 -75.008)" fill="#00506c"/>
    <path id="パス_45" data-name="パス 45" d="M245.771,410.734v3.492c.29.026.584.031.879.031s.59-.006.88-.031V410.7h-1.759Z" transform="translate(-224.65 -375.411)" fill="#00506c"/>
    <path id="パス_46" data-name="パス 46" d="M247.53,63.392V59.9c-.289-.026-.584-.032-.88-.032s-.589.006-.879.032v3.528h1.759Z" transform="translate(-224.65 -54.724)" fill="#00506c"/>
    <path id="パス_47" data-name="パス 47" d="M326.214,386.855l1.75,3.022c.434-.227.854-.47,1.266-.738l-1.743-3.028Z" transform="translate(-298.181 -352.936)" fill="#00506c"/>
    <path id="パス_48" data-name="パス 48" d="M389.891,151.907a13.705,13.705,0,0,0-.737-1.272l-3.028,1.743.739,1.271Z" transform="translate(-352.946 -137.693)" fill="#00506c"/>
    <path id="パス_49" data-name="パス 49" d="M414.245,245.757h-3.532v1.76h3.532c.022-.29.027-.584.027-.881S414.267,246.046,414.245,245.757Z" transform="translate(-375.42 -224.642)" fill="#00506c"/>
    <path id="パス_50" data-name="パス 50" d="M22,0A22,22,0,1,0,43.995,22,22,22,0,0,0,22,0Zm0,41.153a19.156,19.156,0,1,1,13.546-5.611A19.088,19.088,0,0,1,22,41.153Z" fill="#00506c"/>
  </g>
</svg>
